<svg id="Layer_1" data-name="Layer 1" xmlns="http://www.w3.org/2000/svg" viewBox="0 0 101 50"><defs><style>.cls-1{fill:#fff;}.cls-2{fill:#b3b3b3;}</style></defs><title>FBicon</title><path class="cls-1" d="M25,0A25,25,0,1,0,50,25,25,25,0,0,0,25,0Zm7.21,13.48a12.9,12.9,0,0,0-2.9-.36,2.5,2.5,0,0,0-2,.66,3.56,3.56,0,0,0-.6,2.45V17.9h4.72v5H26.76V41.73H20.45V22.87H16.94v-5h3.51V16.11a12.18,12.18,0,0,1,.63-4.49,5,5,0,0,1,2.37-2.4,8.87,8.87,0,0,1,4.35-.93,17.66,17.66,0,0,1,5.27.8Z"/><path class="cls-2" d="M76,0a25,25,0,1,0,25,25A25,25,0,0,0,76,0ZM83.2,13.48a12.9,12.9,0,0,0-2.9-.36,2.5,2.5,0,0,0-2,.66,3.56,3.56,0,0,0-.6,2.45V17.9h4.72v5H77.74V41.73H71.43V22.87H67.92v-5h3.51V16.11a12.18,12.18,0,0,1,.63-4.49,5,5,0,0,1,2.37-2.4,8.87,8.87,0,0,1,4.35-.93,17.66,17.66,0,0,1,5.27.8Z"/></svg>