<svg id="Layer_1" data-name="Layer 1" xmlns="http://www.w3.org/2000/svg" viewBox="0 0 200 130"><defs><style>.cls-1{fill:#fff;}</style></defs><title>logoHIT</title><path class="cls-1" d="M92,29.34c0,7.77,0,15.54,0,23.31a3.69,3.69,0,0,1-4,4c-1.62-.1-3.26,0-4.88,0a3.43,3.43,0,0,1-3.75-3.71c0-2.66,0-5.31,0-8,0-.71,0-1.43,0-2.14a2.1,2.1,0,0,0-2.19-2.15q-5.31,0-10.63,0c-1.45,0-2.19.89-2.2,2.48q0,7.41,0,14.83c0,4.46-.05,8.91,0,13.37a3.67,3.67,0,0,1-4,4c-1.68-.11-3.37,0-5.06,0a3.4,3.4,0,0,1-3.56-3.56q0-23.74,0-47.48a3.39,3.39,0,0,1,3.51-3.52c1.83,0,3.66,0,5.49,0a3.43,3.43,0,0,1,3.61,3.61c0,1.43,0,2.86,0,4.29,0,1.81.81,2.59,2.63,2.6h9.43c2.28,0,3-.68,3-2.94q0-11.19,0-22.37a3.77,3.77,0,0,1,1.16-3A3.6,3.6,0,0,1,83.09,2c1.74,0,3.49,0,5.23,0A3.46,3.46,0,0,1,92,5.77Q92,17.56,92,29.34Z"/><path class="cls-1" d="M111.09,48q0,11.66,0,23.31c0,2.69-1.3,4-4,4-1.69,0-3.37,0-5.06,0a3.36,3.36,0,0,1-3.51-3.5q0-23.79,0-47.57a3.33,3.33,0,0,1,3.43-3.5c1.86,0,3.71,0,5.57,0a3.38,3.38,0,0,1,3.56,3.63Q111.1,36.18,111.09,48Z"/><path class="cls-1" d="M126.13,44.54q0-4.29,0-8.57a2.4,2.4,0,0,0-2.69-2.7h-2.83a3.31,3.31,0,0,1-3.38-3.35c0-1.86,0-3.71,0-5.57a3.32,3.32,0,0,1,3.62-3.62c4.37,0,8.74,0,13.11,0h9.86c2.51,0,3.78,1.29,3.78,3.81,0,1.74,0,3.49,0,5.23A3.33,3.33,0,0,1,144,33.27h-2.57c-1.89,0-2.76.89-2.76,2.8q0,8.27,0,16.54c0,2.69-1.29,4-4,4H130c-2.56,0-3.88-1.33-3.88-3.91S126.13,47.25,126.13,44.54Z"/><path class="cls-1" d="M85.64,75.31c-.91,0-1.83,0-2.74,0A3.38,3.38,0,0,1,79.4,72c-.07-1.94-.06-3.88,0-5.82a3.4,3.4,0,0,1,3.48-3.38q2.83,0,5.65,0A3.41,3.41,0,0,1,92,66.15q.08,2.87,0,5.74a3.4,3.4,0,0,1-3.52,3.42C87.53,75.33,86.58,75.31,85.64,75.31Z"/><path class="cls-1" d="M132.33,75.3c-1,0-2,0-3,0a3.29,3.29,0,0,1-3.2-3.18q-.09-3.08,0-6.16a3.3,3.3,0,0,1,3.28-3.19q3-.06,5.91,0a3.35,3.35,0,0,1,3.34,3.32q.05,3,0,5.91a3.35,3.35,0,0,1-3.34,3.32c-1,0-2,0-3,0Z"/><path class="cls-1" d="M104.73,14.59c-1,0-1.94,0-2.91,0a3.31,3.31,0,0,1-3.29-3.18c-.07-2.08-.07-4.17,0-6.25a3.24,3.24,0,0,1,3.17-3.11c2.05-.05,4.11-.06,6.16,0a3.31,3.31,0,0,1,3.19,3.28q.06,3,0,5.91a3.39,3.39,0,0,1-3.42,3.34C106.67,14.61,105.7,14.59,104.73,14.59Z"/><path class="cls-1" d="M188.7,99.3c1.6.74,2.45.3,2.65-1.35a18,18,0,0,0-.06-5.29c-.14-.79-.42-1.51-1.38-1.6s-1.32.57-1.61,1.27a19.86,19.86,0,0,0-1.11,5.77c-.11,1.11-.23,2.21-.3,3.32,0,.46-.21.57-.63.56-.74,0-1.48,0-2.23,0-1.06,0-1.07,0-.93-1.09.25-2,.48-3.91.8-5.85a8.4,8.4,0,0,0-.53-4.11c-.24-.73-.52-1.44-.83-2.3h3.69c.35,0,.4.26.46.52.17.74.34,1.49.51,2.25.29-.16.3-.44.39-.67a3.14,3.14,0,0,1,3.08-2.38c1.83,0,3.39.55,4.17,2.39a10.15,10.15,0,0,1,.65,3.86,15.4,15.4,0,0,1-.46,4.67,4.6,4.6,0,0,1-5.84,2.94.62.62,0,0,1-.5-.67C188.72,100.8,188.7,100.09,188.7,99.3Z"/><path class="cls-1" d="M138.45,91.25c.16-.83.29-1.55.44-2.27.07-.34.39-.4.65-.48,2.42-.78,4.4.3,4.87,2.8a19.34,19.34,0,0,1,0,7.24c-.45,2.38-1.47,3.31-3.85,3.71a9.84,9.84,0,0,1-3.58,0,4.31,4.31,0,0,1-3.78-4.14c-.27-3-.06-6-.12-9,0-.37.13-.51.5-.5,1,0,2,0,3,0,.61,0,.52.38.52.74,0,2.48,0,5,0,7.45a6.13,6.13,0,0,0,.17,1.87A1.58,1.58,0,0,0,139,99.9a1.43,1.43,0,0,0,1.57-1.37,22.75,22.75,0,0,0,0-6.31C140.37,91.09,139.76,90.81,138.45,91.25Z"/><path class="cls-1" d="M42.1,95.24c0-2,0-3.94,0-5.91,0-.54.11-.75.7-.73,2.23,0,4.46,0,6.68,0s3.43,1.14,3.48,3.44c.06,3.08,0,6.17,0,9.26,0,.48-.14.66-.63.64-.88,0-1.77,0-2.66,0-.57,0-.72-.17-.71-.73,0-2.71,0-5.43,0-8.14a1.88,1.88,0,0,0-2.68-1.83c-.41.14-.24.47-.24.72,0,3,0,6,0,9,0,.79-.2,1-1,1a15.27,15.27,0,0,0-2.31,0c-.59,0-.72-.19-.71-.74C42.12,99.24,42.1,97.24,42.1,95.24Z"/><path class="cls-1" d="M92,102l3.22-9.7c.33-1,.33-1-.73-1-1.31,0-2.63,0-3.94,0-.49,0-.72-.08-.71-.65,0-1.83,0-3.66,0-5.49,0-.49.15-.64.63-.62.88,0,1.77,0,2.66,0,.57,0,.66.21.64.69,0,.88,0,1.77,0,2.66,0,.63.2.76.78.75,1.46,0,2.91,0,4.37,0,.53,0,.66.15.68.67a9.56,9.56,0,0,1-.53,3.52c-1,2.82-2,5.66-2.87,8.51a.82.82,0,0,1-1,.68C94.19,101.94,93.17,102,92,102Z"/><path class="cls-1" d="M20.54,87.87c0-.94,0-1.88,0-2.83,0-.42.14-.54.54-.53.94,0,1.88,0,2.82,0,.46,0,.58.15.57.59,0,.94,0,1.88,0,2.82,0,.53.15.69.68.68,1.45,0,2.91,0,4.37,0,.54,0,.73.13.74.71a10,10,0,0,1-.55,3.6c-1,2.76-1.9,5.55-2.8,8.34-.18.54-.41.79-1,.74a21.44,21.44,0,0,0-2.48,0c-.59,0-.66-.16-.47-.69,1-3.07,2-6.17,3.08-9.24.23-.67.1-.81-.58-.79-1.43,0-2.85,0-4.28,0-.45,0-.6-.13-.58-.58C20.56,89.76,20.54,88.81,20.54,87.87Z"/><path class="cls-1" d="M129.22,95.26a18.25,18.25,0,0,1-.15,3.67,3.1,3.1,0,0,1-2.89,2.9,19.26,19.26,0,0,1-5,.07c-1.13-.15-.28-1.31-.5-2-.13-.4,0-.7.56-.67a20.33,20.33,0,0,0,2.05,0c1.14,0,1.64-.44,1.8-1.55a18.44,18.44,0,0,0,0-5,1.39,1.39,0,0,0-1.42-1.33c-.8,0-1.6-.08-2.39-.06-.49,0-.62-.16-.64-.64-.05-2-.07-2,2-2a20.64,20.64,0,0,1,3.59.13,3,3,0,0,1,2.81,2.86,6.32,6.32,0,0,1,.14.93C129.23,93.44,129.22,94.35,129.22,95.26Z"/><path class="cls-1" d="M179.35,95.22a22.66,22.66,0,0,1-.21,3.81,3.13,3.13,0,0,1-3.13,2.84c-1.54.16-3.08.07-4.62.1-.4,0-.53-.13-.56-.54-.16-2.17-.17-2.16,2-2.17,2,0,2.5-.51,2.54-2.46,0-1.17,0-2.34,0-3.51-.07-1.47-.53-1.91-2-2-.65,0-1.31,0-2,0-.4,0-.52-.14-.55-.54-.14-2.13-.15-2.15,1.95-2.13a22.66,22.66,0,0,1,3.76.16,3,3,0,0,1,2.61,2.67A22.26,22.26,0,0,1,179.35,95.22Z"/><path class="cls-1" d="M159,97.32c0,2.63,0,5.25,0,7.88,0,.57-.1.82-.74.79-.91-.05-1.83,0-2.74,0-.44,0-.59-.13-.59-.58q0-8.09,0-16.19c0-.51.17-.63.64-.62.88,0,1.77,0,2.65,0,.6,0,.78.16.77.76C159,92,159,94.67,159,97.32Z"/><path class="cls-1" d="M74.33,98.29c-.32.83-.55,1.5-.84,2.13a3.53,3.53,0,0,1-1.75,2c-.51.21-.9.23-.81-.52a4.67,4.67,0,0,0,0-.94,2.87,2.87,0,0,1,1.35-3.1c1.9-1.25,2.2-3.36,1.87-5.51-.13-.88-.85-1.05-1.61-1.09-1.43-.08-1.43-.09-1.43-1.52,0-1.16,0-1.16,1.19-1.15.91,0,1.83,0,2.74,0A2.74,2.74,0,0,1,78,91.55c.1,1.71.11,3.42.12,5.13a17.84,17.84,0,0,0,.58,4.65c.13.45.12.67-.45.64-.91,0-1.83,0-2.74,0-.5,0-.65-.22-.71-.62Z"/><path class="cls-1" d="M8.76,97.3c0,2.66,0,5.31,0,8,0,.56-.16.74-.72.71-.88,0-1.77,0-2.66,0-.46,0-.64-.09-.64-.6q0-8.1,0-16.2c0-.44.12-.6.57-.59.91,0,1.83,0,2.74,0,.6,0,.7.21.69.74C8.75,92,8.76,94.64,8.76,97.3Z"/><path class="cls-1" d="M117.06,96.36c0,1.66,0,3.31,0,5,0,.48-.13.65-.62.64q-2.49,0-5,0c-.5,0-.67-.17-.62-.64a4.51,4.51,0,0,0,0-.51c0-1.51,0-1.54,1.48-1.54.54,0,.68-.16.67-.68,0-2,0-3.94,0-5.91,0-1.11-.24-1.38-1.36-1.38-.68,0-.78-.25-.78-.85,0-1.85,0-1.85,1.89-1.85.71,0,1.43,0,2.14,0a1.94,1.94,0,0,1,2.05,1.89,4.21,4.21,0,0,1,.1.68c0,1.71,0,3.43,0,5.14Z"/><path class="cls-1" d="M12.5,116.68c0,2.23,0,4.46,0,6.68,0,.66-.25.76-.8.72s-1,.1-.93-.7c.05-1.8,0-3.6,0-5.4,0-.5-.12-.71-.66-.69-1.11,0-2.23,0-3.34,0-.54,0-.67.18-.66.69,0,1.8,0,3.6,0,5.4,0,.69-.3.72-.82.7s-.91.05-.91-.72q.05-6.68,0-13.36c0-.74.39-.68.86-.67s.9-.13.87.64c-.06,1.68,0,3.37,0,5.05,0,.51.12.71.66.69,1.11,0,2.23,0,3.34,0,.54,0,.67-.18.66-.69,0-1.66,0-3.31,0-5,0-.76.36-.72.89-.74s.86.05.85.76C12.47,112.28,12.5,114.48,12.5,116.68Z"/><path class="cls-1" d="M33.78,95.33c0-2,0-4,0-6,0-.53.11-.77.7-.74.91.05,1.83,0,2.74,0,.41,0,.62.07.62.56q0,6.13,0,12.26c0,.47-.19.58-.61.57-.94,0-1.89,0-2.83,0-.51,0-.62-.19-.62-.65C33.8,99.33,33.78,97.33,33.78,95.33Z"/><path class="cls-1" d="M167.1,95.33c0,1.94,0,3.89,0,5.83,0,.62-.12.88-.79.83a24.4,24.4,0,0,0-2.57,0c-.5,0-.71-.1-.71-.66q0-6,0-12.08c0-.47.12-.67.62-.65.94,0,1.89,0,2.83,0,.51,0,.62.19.61.65C167.09,91.27,167.1,93.3,167.1,95.33Z"/><path class="cls-1" d="M17.12,95.32c0,2,0,4,0,6,0,.52-.13.7-.67.68-.88,0-1.77,0-2.65,0-.5,0-.7-.11-.7-.66q0-6,0-12.07c0-.54.16-.69.68-.67a25.47,25.47,0,0,0,2.65,0c.61,0,.69.22.68.74C17.1,91.33,17.12,93.32,17.12,95.32Z"/><path class="cls-1" d="M86.45,95.34c0,1.94,0,3.88,0,5.82,0,.61-.12.88-.79.83A26.43,26.43,0,0,0,83,102c-.45,0-.58-.14-.58-.59q0-6.12,0-12.24c0-.48.18-.57.6-.56.88,0,1.77,0,2.65,0,.59,0,.79.14.77.75C86.42,91.34,86.45,93.34,86.45,95.34Z"/><path class="cls-1" d="M107.14,95.24c0,2,0,4,0,6.07,0,.53-.16.69-.68.67-.91,0-1.83,0-2.74,0-.45,0-.59-.14-.59-.58q0-6.12,0-12.23c0-.46.16-.58.59-.57.91,0,1.83,0,2.74,0,.52,0,.69.12.68.66C107.12,91.25,107.14,93.25,107.14,95.24Z"/><path class="cls-1" d="M145.7,114.89a3.11,3.11,0,0,1,2-1.32,2.3,2.3,0,0,1,2.95,2.26c.21,2.56,0,5.14.1,7.71,0,.68-.46.5-.82.53s-.7,0-.69-.56c0-2,0-4,0-6a8.52,8.52,0,0,0-.12-1.36,1.38,1.38,0,0,0-1.34-1.22,1.58,1.58,0,0,0-1.7.89,4.39,4.39,0,0,0-.39,2c0,1.86,0,3.71,0,5.57,0,.59-.2.72-.73.71s-.82,0-.82-.72q0-6.64,0-13.28c0-.7.27-.75.85-.78s.7.31.69.82C145.69,111.71,145.7,113.3,145.7,114.89Z"/><path class="cls-1" d="M191.74,122.14l2-7.63a1.18,1.18,0,0,1,1.62-.76c.38.21.06.52,0,.74-.8,2.76-1.63,5.52-2.45,8.28-.45,1.5-.88,3-1.33,4.51a1.2,1.2,0,0,1-1.55.63.24.24,0,0,1-.12-.28,1.76,1.76,0,0,1,.1-.41,8.22,8.22,0,0,0-.15-6.52c-.74-2-1.26-4-1.85-6-.09-.29-.49-.7,0-.9a1.12,1.12,0,0,1,1.56.61q.93,3.47,1.85,6.94C191.53,121.51,191.61,121.73,191.74,122.14Z"/><path class="cls-1" d="M35.83,114.89a3.21,3.21,0,0,1,2-1.31,2.27,2.27,0,0,1,2.91,2.19c.25,2.59.06,5.2.11,7.79,0,.69-.49.46-.85.5s-.68,0-.67-.58c0-2.06,0-4.11,0-6.17a7.75,7.75,0,0,0-.09-1.11,1.4,1.4,0,0,0-1.38-1.29,1.59,1.59,0,0,0-1.73,1,4.86,4.86,0,0,0-.35,2c0,1.83,0,3.66,0,5.49,0,.64-.27.68-.77.68s-.78-.06-.77-.69c0-3,0-6.06,0-9.08,0-.45.13-.67.57-.57s1-.36,1,.49C35.82,114.45,35.83,114.67,35.83,114.89Z"/><path class="cls-1" d="M51.37,114.83a2.94,2.94,0,0,1,3.11-1.24,2,2,0,0,1,1.72,1.57,5.43,5.43,0,0,1,.19,1.44c0,2.26,0,4.51,0,6.77,0,.59-.19.72-.73.71s-.83-.06-.82-.73c0-2.28,0-4.57,0-6.85a1.46,1.46,0,0,0-1.37-1.58,1.66,1.66,0,0,0-1.82,1.1,4.47,4.47,0,0,0-.27,1.68q0,2.74,0,5.48a.88.88,0,0,1-1.32.86c-.29-.14-.19-.39-.19-.59,0-3.08,0-6.17-.07-9.25,0-.32.07-.54.41-.46s1-.34,1.16.33A2.76,2.76,0,0,1,51.37,114.83Z"/><path class="cls-1" d="M154.22,114.8a3.86,3.86,0,0,1,1.57-1.13c2-.57,3.33.4,3.42,2.58.07,1.6,0,3.2,0,4.8q0,1.07,0,2.14a.85.85,0,0,1-1.3.85c-.34-.15-.22-.43-.22-.66,0-2.2,0-4.4,0-6.59a1.67,1.67,0,0,0-.88-1.72,1.72,1.72,0,0,0-2.34.93,4.74,4.74,0,0,0-.27,1.85c0,1.83,0,3.65,0,5.48,0,.63-.23.74-.79.76s-.74-.21-.75-.78c0-3,.11-6.05-.07-9.07,0-.39.13-.56.48-.49s1-.33,1.11.39A3.48,3.48,0,0,1,154.22,114.8Z"/><path class="cls-1" d="M124.79,109.33c1.23,0,2.46,0,3.68,0,.77,0,.61.44.64.88s0,.82-.66.76-1.43,0-2.14,0-.7.19-.69.73c0,3.85,0,7.71,0,11.56,0,.63-.1.89-.82.88s-.92-.16-.91-.89c0-3.82,0-7.65,0-11.47,0-.62-.13-.87-.79-.81s-1.32,0-2,0-.76-.2-.74-.77,0-.91.75-.87C122.39,109.39,123.6,109.33,124.79,109.33Z"/><path class="cls-1" d="M63.93,121.22c0,1.91-1.14,3-3.15,3s-3.12-.94-3.23-2.66c0-.31-.18-.8.4-.7s1.2-.48,1.31.55.58,1.39,1.39,1.43a1.53,1.53,0,0,0,1.66-1.19,1.33,1.33,0,0,0-.72-1.51c-.7-.44-1.44-.8-2.14-1.24-1.59-1-2.1-2.28-1.51-3.74a3.06,3.06,0,0,1,3.35-1.67,2.52,2.52,0,0,1,2.54,2.21c0,.25.2.69-.25.64s-1.14.44-1.38-.32c-.19-.57-.37-1.11-1-1.22a1.4,1.4,0,0,0-1.74.73,1.26,1.26,0,0,0,.67,1.72c.78.47,1.6.87,2.37,1.36A2.76,2.76,0,0,1,63.93,121.22Z"/><path class="cls-1" d="M84,122.92a2.82,2.82,0,0,1-3.06,1.25,1.92,1.92,0,0,1-1.71-1.86c-.07-2.71-.05-5.42-.07-8.13,0-.64.47-.42.8-.46s.7,0,.69.57c0,2,0,4.05,0,6.08a8.36,8.36,0,0,0,.11,1.28,1.39,1.39,0,0,0,1.1,1.27,1.59,1.59,0,0,0,1.72-.68,2.79,2.79,0,0,0,.46-1.7c0-2,0-4.05,0-6.08,0-.63.23-.74.79-.75s.76.18.76.77c0,2.94,0,5.88,0,8.81,0,.48,0,.84-.63.78s-1.09.09-.94-.76A2,2,0,0,0,84,122.92Z"/><path class="cls-1" d="M63.44,92.72c0-1.17,0-2.34,0-3.5,0-.5.16-.64.64-.62.91,0,1.82,0,2.73,0,.5,0,.7.11.69.66,0,2.11,0,4.21,0,6.32,0,.44-.11.68-.57.75q-1.43.23-2.85.53c-.5.1-.65,0-.64-.55C63.46,95.12,63.44,93.92,63.44,92.72Z"/><path class="cls-1" d="M137.71,118.79a14.83,14.83,0,0,0,.28,2.73c.25.91.86,1.45,1.62,1.36s1.18-.7,1.32-1.46a1,1,0,0,1,1.39-.79c.33.1.26.32.25.54a3.1,3.1,0,0,1-2.68,3.08,2.9,2.9,0,0,1-3.44-2.35,12.56,12.56,0,0,1,0-6.19,3,3,0,0,1,3.62-2.14,2.69,2.69,0,0,1,2.38,2.87c0,.39,0,.72-.52.62s-1,.35-1.07-.54-.28-1.49-1.21-1.61-1.47.42-1.75,1.42A9.89,9.89,0,0,0,137.71,118.79Z"/><path class="cls-1" d="M112.93,119.54c0-1.29,0-2.57,0-3.85,0-.53-.14-.73-.67-.67s-.82.06-.82-.62.27-.75.78-.67.76-.16.71-.72a12.21,12.21,0,0,1,0-1.54,2.38,2.38,0,0,1,3-2.22c.41.1.37.37.37.65s.08.61-.37.63-1.14.08-1.36.68a4.27,4.27,0,0,0-.09,2.28c.09.48.69.22,1,.21.59,0,.8.15.79.77s-.43.6-.8.54c-.9-.14-1.13.22-1.11,1.1.06,2.4,0,4.8,0,7.2,0,.61-.19.76-.78.77s-.78-.18-.76-.77C113,122.06,112.93,120.8,112.93,119.54Z"/><path class="cls-1" d="M68.21,124.16c-1.65,0-2.24-.54-2.24-2.13,0-2.08,0-4.16,0-6.24,0-.57-.11-.86-.74-.77s-.84,0-.83-.67.37-.68.81-.61c.71.1.85-.27.74-.84a1.32,1.32,0,0,1,1-1.66c.38-.13.52-.12.5.31a10.89,10.89,0,0,1,0,1.2c-.13.86.23,1.09,1,1,.42,0,1-.25,1,.61,0,.51-.14.69-.68.68-1.33,0-1.33,0-1.33,1.34,0,1.71,0,3.42,0,5.13,0,1,.35,1.26,1.31,1.28.34,0,.75-.19.75.47s-.09.89-.72.87A5.38,5.38,0,0,0,68.21,124.16Z"/><path class="cls-1" d="M88.08,119c0-1.06,0-2.11,0-3.17,0-.62-.12-.91-.79-.81-.46.07-.79,0-.79-.63s.28-.73.77-.65c.65.1.85-.15.81-.8,0-.4-.21-.91.15-1.22s.8-.64,1.2-.53.09.65.15,1a2.36,2.36,0,0,1,0,.34c0,1.19,0,1.2,1.15,1.2.48,0,.88-.07.87.67s-.47.62-.9.63c-1.12,0-1.12,0-1.12,1.14,0,1.74,0,3.48,0,5.22,0,1.09.32,1.4,1.36,1.39.39,0,.72-.08.7.52s-.1.83-.68.82-.92.05-1.37,0a1.54,1.54,0,0,1-1.53-1.63c0-1.17,0-2.34,0-3.51Z"/><path class="cls-1" d="M75.95,111.06c0,.73,0,1.33,0,1.92s.19.82.77.75c.22,0,.46,0,.68,0,.53-.07.6.21.6.65s-.06.66-.59.66c-1.45,0-1.45,0-1.45,1.48s0,3.14,0,4.71c0,1.23.3,1.53,1.5,1.55.29,0,.61-.08.55.38s.22.86-.43.93a5.66,5.66,0,0,1-1.79,0c-.91-.19-1.32-.79-1.33-2,0-2,0-4.05,0-6.08,0-.71-.08-1.16-.94-1-.45.09-.61-.14-.58-.58s0-.8.55-.71c.8.13,1.1-.21,1-1C74.21,111.6,75.08,111.43,75.95,111.06Z"/><path class="cls-1" d="M46.4,116.66c0-2.22,0-4.45,0-6.67,0-.73.37-.68.85-.66s.88-.12.88.65q-.05,6.71,0,13.43c0,.73-.38.68-.86.67s-.88.08-.86-.66C46.43,121.17,46.4,118.92,46.4,116.66Z"/><path class="cls-1" d="M24.32,116.77c0,2.17,0,4.34,0,6.51,0,.62-.13.82-.79.83s-.76-.31-.76-.88c0-4.37,0-8.73,0-13.1,0-.64.16-.82.81-.82s.75.2.74.78C24.3,112.31,24.32,114.54,24.32,116.77Z"/><path class="cls-1" d="M169.25,116.67c0-2.2,0-4.4,0-6.6,0-.62.2-.75.78-.76s.76.19.75.77q0,6.64,0,13.28c0,.57-.16.74-.72.72s-.83-.08-.82-.74C169.27,121.13,169.25,118.9,169.25,116.67Z"/><path class="cls-1" d="M70.5,118.82c0-1.49,0-3,0-4.46,0-.68.37-.62.82-.64s.72.06.71.64q0,4.54,0,9.08c0,.58-.24.65-.72.64s-.83,0-.81-.64C70.53,121.9,70.5,120.36,70.5,118.82Z"/><path class="cls-1" d="M72.11,110.29c.23.82-.27.79-.88.85-.84.07-.78-.37-.82-1-.06-.76.25-.85.91-.88S72.23,109.65,72.11,110.29Z"/><path class="cls-1" d="M186.86,114.65c0-.77-.2-.93-.94-.95-.92,0-.44.71-.71,1.1a2.43,2.43,0,0,0-4.53.72,11.45,11.45,0,0,0-.09,6.41,2.58,2.58,0,0,0,4.71.92c0,.9,0,1.61,0,2.31a1.48,1.48,0,0,1-1.35,1.52,1.32,1.32,0,0,1-1.59-1.08c0-.16-.06-.39-.26-.39-.45,0-1-.14-1.33.07s-.11.78,0,1.17a1.73,1.73,0,0,0,.72.93,4.22,4.22,0,0,0,4,.18c1.2-.5,1.31-1.62,1.31-2.74C186.84,121.43,186.81,118,186.86,114.65Zm-1.75,6.81a1.52,1.52,0,0,1-1.56,1.2,1.41,1.41,0,0,1-1.44-1.22,11.34,11.34,0,0,1-.08-5.08,1.54,1.54,0,0,1,1.56-1.42c.79,0,1.3.48,1.57,1.43a10.94,10.94,0,0,1,.18,2.41A9.36,9.36,0,0,1,185.11,121.45Z"/><path class="cls-1" d="M134.36,120.93a1.19,1.19,0,0,0-1.54.73,1.56,1.56,0,0,1-1.55,1.23,1.49,1.49,0,0,1-1.57-1.29c-.08-.36-.14-.73-.19-1.09-.14-1.06-.14-1.06.9-1.06H132c.69,0,1.37,0,2.06,0,.42,0,.63-.09.62-.57a15.73,15.73,0,0,0-.25-2.89,2.73,2.73,0,0,0-2.92-2.45c-1.78-.07-2.95.66-3.35,2.29a12.13,12.13,0,0,0,0,6.18,3.39,3.39,0,0,0,5.4,1.53,2.93,2.93,0,0,0,1-2.12C134.57,121.23,134.62,121,134.36,120.93Zm-3.49-6.07a1.53,1.53,0,0,1,2,1.31c.49,1.89.4,2-1.59,2a.9.9,0,0,1-.34,0c-.48-.21-1.32.49-1.46-.41C129.26,116.31,130,115,130.87,114.86Z"/><path class="cls-1" d="M98.67,120.92a1.18,1.18,0,0,0-1.53.75,1.56,1.56,0,0,1-1.56,1.22A1.5,1.5,0,0,1,94,121.6c-.09-.39-.14-.79-.21-1.18-.12-.67,0-1.1.85-1a12.54,12.54,0,0,0,1.71,0c.71,0,1.43,0,2.14,0,.36,0,.53-.12.51-.5a16.19,16.19,0,0,0-.25-3,2.73,2.73,0,0,0-2.93-2.44c-1.78-.06-2.95.67-3.34,2.3a12.23,12.23,0,0,0,0,6.18,3.39,3.39,0,0,0,5.34,1.56,3,3,0,0,0,1-2.19C98.91,121.21,98.94,121,98.67,120.92Zm-4.28-5.58c.45-.64,1.14-.53,1.79-.44a1,1,0,0,1,.63.4,1.71,1.71,0,0,1,.21.36,3,3,0,0,1,.26,2.31c-.24.51-1.14.09-1.63.2a2,2,0,0,1-.27,0c-.53-.11-1.39.3-1.53-.23A3.2,3.2,0,0,1,94.39,115.34Z"/><path class="cls-1" d="M32.53,115.94a2.92,2.92,0,0,0-3.19-2.4,3,3,0,0,0-3.29,2.4,13.49,13.49,0,0,0-.27,2.89A12,12,0,0,0,26.1,122a2.9,2.9,0,0,0,3.25,2.3A2.84,2.84,0,0,0,32.5,122,13,13,0,0,0,32.53,115.94ZM31,121.44a1.64,1.64,0,0,1-1.72,1.46,1.58,1.58,0,0,1-1.66-1.43,12.79,12.79,0,0,1-.05-5.09,1.61,1.61,0,0,1,1.71-1.47A1.65,1.65,0,0,1,31,116.34a3,3,0,0,1,.13.58c0,.63.07,1.25.08,1.59A14.12,14.12,0,0,1,31,121.44Z"/><path class="cls-1" d="M21,115.94a2.94,2.94,0,0,0-3.27-2.41,3,3,0,0,0-3.21,2.4,13.42,13.42,0,0,0-.27,2.89,12.6,12.6,0,0,0,.28,3.06,2.92,2.92,0,0,0,3.27,2.39A2.86,2.86,0,0,0,21,121.88,13.07,13.07,0,0,0,21,115.94Zm-1.55,5.55a1.62,1.62,0,0,1-1.67,1.41,1.57,1.57,0,0,1-1.68-1.39,12.71,12.71,0,0,1-.07-5.09,1.61,1.61,0,0,1,1.68-1.51c1,0,1.51.43,1.8,1.48a9.66,9.66,0,0,1,.19,2.32A12.34,12.34,0,0,1,19.5,121.49Z"/><path class="cls-1" d="M168,119a12.44,12.44,0,0,0-.16-2.39,6.42,6.42,0,0,0-.15-.67,2.94,2.94,0,0,0-3.21-2.38,2.89,2.89,0,0,0-3.22,2.35,12.55,12.55,0,0,0,.05,6.19c.42,1.55,1.41,2.2,3.14,2.2a2.86,2.86,0,0,0,3.18-2.17A9.91,9.91,0,0,0,168,119Zm-2,2.94a1.43,1.43,0,0,1-1.53,1,1.52,1.52,0,0,1-1.56-1.09,9.57,9.57,0,0,1-.37-3.13,7.71,7.71,0,0,1,.3-2.62,1.57,1.57,0,0,1,1.61-1.15,1.52,1.52,0,0,1,1.65,1.1A10.59,10.59,0,0,1,166,121.91Z"/><path class="cls-1" d="M110.6,115.69a3,3,0,0,0-3.21-2.16,2.87,2.87,0,0,0-3.12,2.15,12.18,12.18,0,0,0,0,6.51c.43,1.46,1.4,2.06,3.07,2.07a2.87,2.87,0,0,0,3.17-2.06,10.28,10.28,0,0,0,.39-3.3A11.06,11.06,0,0,0,110.6,115.69ZM109,121.77a1.49,1.49,0,0,1-1.61,1.13,1.56,1.56,0,0,1-1.59-1.19,12.22,12.22,0,0,1-.33-3,9.5,9.5,0,0,1,.28-2.56,1.6,1.6,0,0,1,1.66-1.21,1.54,1.54,0,0,1,1.67,1.19A11.38,11.38,0,0,1,109,121.77Z"/><path class="cls-1" d="M178.75,115.74a2.87,2.87,0,0,0-3.09-2.2,3,3,0,0,0-3.24,2.11,11.13,11.13,0,0,0-.38,3.22c0,.68.05,1.37.12,2.05a6.12,6.12,0,0,0,.26,1.17,2.84,2.84,0,0,0,3.15,2.19c1.73,0,2.76-.65,3.16-2.18A12.55,12.55,0,0,0,178.75,115.74Zm-1.23,3.41a13.9,13.9,0,0,1-.29,2.43,1.59,1.59,0,0,1-1.65,1.33,1.52,1.52,0,0,1-1.65-1.32,11.93,11.93,0,0,1-.07-5.34,1.75,1.75,0,0,1,3.4,0A9.68,9.68,0,0,1,177.52,119.14Z"/></svg>